# xmcd CD database file
#
# Track frame offsets:
#	150
#	15987
#	29356
#	50151
#	62148
#	78944
#	91839
#	115458
#	132790
#	158161
#	172877
#	188570
#	202042
#	215194
#	229120
#
# Disc length: 3234 seconds
#
# Revision: 0
# Processed by: cddbd v1.5.2PL0 Copyright (c) Steve Scherf et al.
# Submitted via: CDex 1.70beta2
#
DISCID=c70ca00f
DTITLE=Hendrik Röver - Esqueletos
DYEAR=2008
DGENRE=Country
TTITLE0=Te Lo Prometo
TTITLE1=Tren
TTITLE2=Camaradas
TTITLE3=Hola, Vaso
TTITLE4=Lunes
TTITLE5=El Silencio
TTITLE6=Sombras
TTITLE7=Ex
TTITLE8=Un Montón De Casas
TTITLE9=80 Kilos De Oro
TTITLE10=Esqueletos
TTITLE11=En Paz
TTITLE12=Círculos
TTITLE13=Mil Pedazos (Bonus Track)
TTITLE14=Uh, Las Vegas (Bonus Track)
EXTD=YEAR: 2008
EXTT0=
EXTT1=
EXTT2=
EXTT3=
EXTT4=
EXTT5=
EXTT6=
EXTT7=
EXTT8=
EXTT9=
EXTT10=
EXTT11=
EXTT12=
EXTT13=
EXTT14=
PLAYORDER=
